<svg height="512pt" viewBox="-28 0 512 512" width="512pt" xmlns="http://www.w3.org/2000/svg"><path d="m230.152344 49.617188c6.648437.109374 13.15625.789062 19.480468 1.980468v-35.917968c0-8.660157-7.019531-15.679688-15.679687-15.679688h-11.640625c-8.65625 0-15.679688 7.019531-15.679688 15.679688v35.882812c7.613282-1.402344 15.472657-2.082031 23.519532-1.945312zm0 0" fill="#8d909f"/><path d="m234.195312 15.679688c0-5.75 3.105469-10.761719 7.71875-13.492188-2.335937-1.378906-5.050781-2.1875-7.960937-2.1875h-11.640625c-8.65625 0-15.679688 7.019531-15.679688 15.679688v35.882812c7.609376-1.402344 15.472657-2.082031 23.519532-1.945312 1.355468.023437 2.699218.082031 4.042968.152343zm0 0" fill="#7e8292"/><path d="m155.96875 439.9375c.785156 39.929688 32.78125 72.0625 72.167969 72.0625 39.382812 0 71.378906-32.132812 72.164062-72.0625zm0 0" fill="#ffc850"/><path d="m186.875 439.9375h-30.90625c.785156 39.929688 32.78125 72.0625 72.167969 72.0625 5.304687 0 10.472656-.601562 15.453125-1.710938-31.980469-7.109374-56.035156-35.800781-56.714844-70.351562zm0 0" fill="#feb644"/><path d="m346.140625 192.171875c-.164063-5.507813-.128906-6.167969-.128906-25.011719 0-70.933594-60.964844-125.542968-129.90625-118.335937-59.449219 6.082031-105.847657 56.738281-105.847657 118.335937 0 18.757813.035157 19.480469-.128906 25.011719-1.953125 66.039063-28.625 129.472656-75.332031 176.933594h386.675781c-45.820312-46.570313-73.34375-109.648438-75.332031-176.933594zm0 0" fill="#ffc850"/><path d="m141.035156 192.171875c.164063-5.53125.128906-6.253906.128906-25.011719 0-60.453125 44.691407-110.359375 102.546876-117.945312-8.964844-1.199219-18.210938-1.371094-27.605469-.390625-59.449219 6.082031-105.847657 56.738281-105.847657 118.335937 0 18.757813.035157 19.480469-.128906 25.011719-1.953125 66.039063-28.625 129.472656-75.332031 176.9375h30.910156c46.703125-47.464844 73.375-110.898437 75.328125-176.9375zm0 0" fill="#feb644"/><path d="m421.472656 112.476562c0 44.109376-35.757812 79.867188-79.867187 79.867188s-79.867188-35.757812-79.867188-79.867188c0-44.109374 35.757813-79.867187 79.867188-79.867187s79.867187 35.757813 79.867187 79.867187zm0 0" fill="#f25c5c"/><path d="m292.648438 112.476562c0-38.820312 27.699218-71.160156 64.410156-78.359374-5-.980469-10.164063-1.507813-15.453125-1.507813-44.109375 0-79.867188 35.757813-79.867188 79.867187 0 44.109376 35.757813 79.867188 79.867188 79.867188 5.289062 0 10.453125-.527344 15.453125-1.507812-36.710938-7.199219-64.410156-39.539063-64.410156-78.359376zm0 0" fill="#e54a4a"/><path d="m341.605469 157.335938c-4.265625 0-7.726563-3.460938-7.726563-7.726563v-58.335937h-.847656c-4.269531 0-7.726562-3.460938-7.726562-7.726563 0-4.269531 3.457031-7.726563 7.726562-7.726563h8.574219c4.265625 0 7.726562 3.457032 7.726562 7.726563v66.058594c0 4.269531-3.460937 7.730469-7.726562 7.730469zm0 0" fill="#e4eaf8"/><path d="m426.019531 367.589844h-395.769531c-16.636719 0-30.25 13.613281-30.25 30.25v13.175781c0 16.636719 13.613281 30.25 30.25 30.25h395.769531c16.640625 0 30.25-13.613281 30.25-30.25v-13.175781c0-16.636719-13.613281-30.25-30.25-30.25zm0 0" fill="#feb644"/><path d="m426.019531 410.359375h-395.769531c-13.554688 0-25.101562-9.039063-28.914062-21.382813-.867188 2.804688-1.335938 5.78125-1.335938 8.863282v13.175781c0 16.636719 13.613281 30.25 30.25 30.25h395.769531c16.640625 0 30.25-13.613281 30.25-30.25v-13.175781c0-3.082032-.46875-6.058594-1.335937-8.863282-3.8125 12.34375-15.359375 21.382813-28.914063 21.382813zm0 0" fill="#fda537"/></svg>