<svg width="953" height="258" xmlns="http://www.w3.org/2000/svg" xmlns:xlink="http://www.w3.org/1999/xlink" overflow="hidden"><defs><filter id="fx0" x="-10%" y="-10%" width="120%" height="120%" filterUnits="userSpaceOnUse" primitiveUnits="userSpaceOnUse"><feComponentTransfer color-interpolation-filters="sRGB"><feFuncR type="discrete" tableValues="0 0"/><feFuncG type="discrete" tableValues="0 0"/><feFuncB type="discrete" tableValues="0 0"/><feFuncA type="linear" slope="0.431373" intercept="0"/></feComponentTransfer><feGaussianBlur stdDeviation="1.54275 1.54275"/></filter><filter id="fx1" x="-10%" y="-10%" width="120%" height="120%" filterUnits="userSpaceOnUse" primitiveUnits="userSpaceOnUse"><feComponentTransfer color-interpolation-filters="sRGB"><feFuncR type="discrete" tableValues="0 0"/><feFuncG type="discrete" tableValues="0 0"/><feFuncB type="discrete" tableValues="0 0"/><feFuncA type="linear" slope="0.431373" intercept="0"/></feComponentTransfer><feGaussianBlur stdDeviation="1.54275 1.54275"/></filter><filter id="fx2" x="-10%" y="-10%" width="120%" height="120%" filterUnits="userSpaceOnUse" primitiveUnits="userSpaceOnUse"><feComponentTransfer color-interpolation-filters="sRGB"><feFuncR type="discrete" tableValues="0 0"/><feFuncG type="discrete" tableValues="0 0"/><feFuncB type="discrete" tableValues="0 0"/><feFuncA type="linear" slope="0.431373" intercept="0"/></feComponentTransfer><feGaussianBlur stdDeviation="1.54275 1.54275"/></filter><filter id="fx3" x="-10%" y="-10%" width="120%" height="120%" filterUnits="userSpaceOnUse" primitiveUnits="userSpaceOnUse"><feComponentTransfer color-interpolation-filters="sRGB"><feFuncR type="discrete" tableValues="0 0"/><feFuncG type="discrete" tableValues="0 0"/><feFuncB type="discrete" tableValues="0 0"/><feFuncA type="linear" slope="0.431373" intercept="0"/></feComponentTransfer><feGaussianBlur stdDeviation="1.54275 1.54275"/></filter><clipPath id="clip4"><rect x="231" y="124" width="953" height="258"/></clipPath><clipPath id="clip5"><rect x="83" y="61" width="35" height="117"/></clipPath><clipPath id="clip6"><rect x="0" y="0" width="202" height="258"/></clipPath><clipPath id="clip7"><rect x="79" y="69" width="229" height="101"/></clipPath><clipPath id="clip8"><rect x="0" y="0" width="387" height="258"/></clipPath><clipPath id="clip9"><rect x="83" y="61" width="37" height="117"/></clipPath><clipPath id="clip10"><rect x="0" y="0" width="202" height="258"/></clipPath><clipPath id="clip11"><rect x="79" y="57" width="449" height="127"/></clipPath><clipPath id="clip12"><rect x="0" y="0" width="623" height="258"/></clipPath></defs><g clip-path="url(#clip4)" transform="translate(-231 -124)"><g clip-path="url(#clip5)" filter="url(#fx0)" transform="translate(230 124)"><g clip-path="url(#clip6)"><path d="M24.4512-91.6348C20.0332-85.998 16.7197-78.2285 14.5107-68.3262 12.7588-60.1758 11.8828-51.4541 11.8828-42.1611 11.8828-33.7061 12.873-25.0605 14.8535-16.2246 17.2148-6.32227 20.4141 1.6377 24.4512 7.65527 25.5937 9.33105 26.9648 10.2832 28.5645 10.5117 30.0117 10.6641 31.4209 10.2832 32.792 9.36914 34.0869 8.53125 35.001 7.46484 35.5342 6.16992 36.0674 4.79883 36.0293 3.69434 35.4199 2.85645 32.4492-1.33301 29.6689-7.5791 27.0791-15.8818 24.1084-25.4795 22.623-34.2393 22.623-42.1611 22.623-50.9209 23.6895-59.2236 25.8223-67.0693 27.9551-74.9912 31.04-81.8467 35.0771-87.6357 35.6865-88.5498 35.7246-89.5781 35.1914-90.7207 34.6582-91.7871 33.7441-92.625 32.4492-93.2344 31.0781-93.9961 29.707-94.2627 28.3359-94.0342 26.8125-93.8818 25.5176-93.082 24.4512-91.6348Z" fill="#FF0000" transform="translate(76.2726 162)"/></g></g><text fill="#FF0000" font-family="Gungsuh,Gungsuh_MSFontService,sans-serif" font-weight="400" font-size="117" transform="translate(303 283)">(</text><g clip-path="url(#clip7)" filter="url(#fx1)" transform="translate(279 124)"><g clip-path="url(#clip8)"><path d="M67.5264-5.59863 67.9834-5.71289C75.5244-6.01758 82.3037-5.90332 88.3213-5.37012 91.6729-5.06543 95.4053-4.57031 99.5186-3.88477 102.261-3.35156 104.051-3.19922 104.889-3.42773 105.955-3.65625 106.983-4.6084 107.974-6.28418 109.573-8.87402 109.497-11.2354 107.745-13.3682 106.146-15.2725 103.365-16.6816 99.4043-17.5957 97.5-17.9766 95.9385-18.0908 94.7197-17.9385 93.958-17.8623 92.8535-17.5195 91.4062-16.9102 89.502-16.2246 87.7881-15.6914 86.2646-15.3105 83.5225-14.7012 80.2471-14.2061 76.4385-13.8252 76.3623-14.8916 76.4385-15.9199 76.667-16.9102 76.8193-17.5957 77.0479-18.4717 77.3525-19.5381 78.1904-21.9756 78.2285-23.7656 77.4668-24.9082 76.3242-26.6602 73.1631-28.5264 67.9834-30.5068 69.583-30.8115 71.373-31.0781 73.3535-31.3066 74.4961-31.3828 76.0957-31.5352 78.1523-31.7637 81.8848-31.9922 84.4365-32.2588 85.8076-32.5635 88.0166-33.0967 89.6162-33.8965 90.6064-34.9629 92.3584-37.4004 92.6631-39.5332 91.5205-41.3613 90.3779-43.1895 88.0928-44.4082 84.665-45.0176 83.5986-45.1699 82.4941-45.0938 81.3516-44.7891 80.666-44.6367 79.5234-44.2939 77.9238-43.7607 74.9531-42.6943 72.4014-41.9707 70.2686-41.5898 66.46-40.752 62.1943-40.2949 57.4717-40.2188 57.5478-41.209 57.7002-42.1611 57.9287-43.0752 58.0049-43.6084 58.1953-44.332 58.5-45.2461 58.957-46.6934 59.1855-47.7598 59.1855-48.4453 59.1855-49.5117 58.8428-50.6543 58.1572-51.873 60.9756-52.2539 64.0605-52.5967 67.4121-52.9014 69.3164-53.1299 71.9824-53.3584 75.4102-53.5869L83.9795-54.3867C88.0928-54.2344 90.6064-55.3008 91.5205-57.5859 92.5107-59.9473 90.9492-62.4609 86.8359-65.127 87.3691-67.1074 88.0547-68.9736 88.8926-70.7256 89.3496-71.792 89.9971-73.0488 90.835-74.4961 92.0537-76.4766 92.5107-77.8857 92.2061-78.7236 91.8252-79.8662 90.0732-81.4277 86.9502-83.4082 84.0557-85.084 81.999-86.0361 80.7803-86.2646 79.8662-86.3408 78.6094-86.0361 77.0098-85.3506 76.248-85.0459 75.6006-84.7793 75.0674-84.5508 74.2295-84.2461 73.3535-83.9414 72.4395-83.6367 68.3262-82.2656 63.4131-81.4658 57.7002-81.2373 52.3682-81.085 46.998-81.3896 41.5898-82.1514 39.9902-82.3799 38.8096-82.2275 38.0479-81.6943 37.2861-81.2373 37.0576-80.5137 37.3623-79.5234 37.7432-78.5332 38.7715-77.3906 40.4473-76.0957 42.2754-74.6484 44.8652-73.1631 48.2168-71.6396 50.5781-70.4209 52.5205-69.8115 54.0439-69.8115 55.1103-69.8877 56.8623-70.3828 59.2998-71.2969 61.8135-72.2109 64.0605-72.9346 66.041-73.4678 69.3926-74.3818 73.2012-75.1436 77.4668-75.7529L78.2666-69.3545C78.4189-68.1357 78.5332-67.3359 78.6094-66.9551 78.6855-66.3457 78.7998-65.9268 78.9521-65.6982 76.1338-64.8604 71.335-64.0225 64.5557-63.1846 57.9287-62.4228 52.8633-62.042 49.3594-62.042 45.1699-62.042 42.3896-61.8516 41.0186-61.4707 39.6475-61.0898 38.7334-60.2139 38.2764-58.8428 38.0479-57.3955 38.9238-55.9863 40.9043-54.6152 42.0469-53.7773 43.8369-52.8633 46.2744-51.873 46.96-51.5684 47.417-51.3398 47.6455-51.1875 48.0264-51.0352 48.2549-50.8828 48.3311-50.7305 48.7119-49.3594 48.7881-47.9502 48.5596-46.5029 48.4834-45.665 48.1787-44.4844 47.6455-42.9609 47.2646-41.5137 46.998-40.3711 46.8457-39.5332 46.6934-38.2383 46.8457-36.9434 47.3027-35.6484 48.8262-32.6016 50.8066-30.6592 53.2441-29.8213 54.7676-29.3643 57.0146-29.2881 59.9854-29.5928 59.376-28.6787 59.376-27.5742 59.9854-26.2793 60.29-25.5176 61.1279-24.2227 62.499-22.3945 63.7939-20.6426 64.708-19.2715 65.2412-18.2812 66.0791-16.5293 66.498-14.8916 66.498-13.3682 57.2812-12.6826 47.8359-12.3779 38.1621-12.4541 28.1836-12.6064 19.6904-13.1016 12.6826-13.9395 11.0068-14.0918 9.82617-13.8633 9.14062-13.2539 8.53125-12.6445 8.53125-11.7305 9.14062-10.5117 9.75-9.29297 10.9688-7.92187 12.7969-6.39844 14.9297-4.64648 17.6338-2.81836 20.9092-0.914062 23.499 0.380859 25.4414 1.06641 26.7363 1.14258 27.7266 1.21875 29.4785 0.875977 31.9922 0.114258 35.877-1.02832 39.6475-1.94238 43.3037-2.62793 49.9307-3.92285 58.0049-4.91309 67.5264-5.59863ZM190.801-80.5518 190.687-80.5518C183.374-79.0283 177.128-78.1143 171.949-77.8096 168.064-77.5811 162.541-77.6191 155.381-77.9238 150.811-78.0762 149.021-77.0859 150.011-74.9531 151.154-72.8203 155-70.1162 161.551-66.8408 164.217-65.5459 166.121-64.8984 167.264-64.8984 168.178-64.8984 169.473-65.3174 171.149-66.1553 173.739-67.5264 176.328-68.6309 178.918-69.4688 183.565-70.916 189.468-72.0967 196.628-73.0107 196.628-67.9072 196.781-62.918 197.085-58.043 197.314-55.2246 197.618-51.6826 197.999-47.417 198.38-43.6084 198.571-41.0186 198.571-39.6475 198.647-37.4385 198.456-35.6484 197.999-34.2773 196.552-30.4687 196.171-28.5645 196.857-28.5645 197.542-28.5645 199.18-30.3545 201.77-33.9346 204.741-38.124 206.645-41.7422 207.483-44.7891 208.625-49.0547 209.311-56.4053 209.539-66.8408 209.616-67.6025 209.806-68.3643 210.111-69.126 210.263-69.583 210.53-70.2305 210.91-71.0684 211.672-72.7441 211.977-74.0391 211.825-74.9531 211.596-76.3242 210.415-77.9619 208.283-79.8662 205.312-82.4561 203.027-83.9033 201.427-84.208 200.361-84.3604 198.685-83.9033 196.4-82.8369 195.41-82.3799 194.61-82.0371 194-81.8086 192.934-81.3516 191.868-80.9326 190.801-80.5518ZM172.748-6.62695 172.863-6.74121C181.927-7.27441 190.268-7.35059 197.885-6.96973 205.35-6.58887 212.091-5.78906 218.109-4.57031 219.861-4.18945 221.46-4.45605 222.908-5.37012 224.279-6.28418 225.193-7.50293 225.65-9.02637 226.107-10.626 225.84-12.2256 224.85-13.8252 223.784-15.5771 221.955-16.9863 219.366-18.0527 216.166-19.1191 213.767-19.6143 212.167-19.5381 211.025-19.5381 209.501-19.1953 207.597-18.5098 204.626-17.291 201.656-16.415 198.685-15.8818 193.429-14.8916 186.574-14.2822 178.118-14.0537 178.042-16.2627 178.157-18.9668 178.461-22.166 178.614-23.9941 178.842-26.584 179.147-29.9355L179.49-31.8779C179.87-34.9248 178.918-37.4766 176.633-39.5332 174.196-41.7422 170.159-43.3799 164.522-44.4463 161.399-45.208 159.494-44.8271 158.809-43.3037 158.047-41.4756 159.494-38.543 163.151-34.5059 165.207-32.1445 167.074-28.6787 168.749-24.1084 170.349-19.9189 171.149-16.4912 171.149-13.8252 163.76-13.5205 156.524-13.4443 149.44-13.5967 142.203-13.6729 135.805-14.0156 130.244-14.625 126.664-14.8535 125.027-14.0156 125.331-12.1113 125.712-10.0547 128.569-7.5791 133.901-4.68457 138.319-2.39941 141.213-1.10449 142.584-0.799805 143.727-0.571289 145.403-0.875977 147.612-1.71387 150.278-2.78027 152.944-3.61816 155.61-4.22754 160.18-5.29395 165.893-6.09375 172.748-6.62695Z" fill="#FF0000" transform="translate(76.2726 162)"/></g></g><text fill="#FF0000" font-family="Gungsuh,Gungsuh_MSFontService,sans-serif" font-weight="400" font-size="117" transform="translate(352 283)">로고</text><g clip-path="url(#clip9)" filter="url(#fx2)" transform="translate(513 124)"><g clip-path="url(#clip10)"><path d="M23.9941-91.6348C22.8516-93.082 21.5186-93.8818 19.9951-94.0342 18.624-94.2627 17.2529-93.9961 15.8818-93.2344 14.5869-92.625 13.6729-91.7871 13.1396-90.7207 12.6064-89.5781 12.6826-88.5498 13.3682-87.6357 17.3291-81.8467 20.376-74.9912 22.5088-67.0693 24.7178-59.2236 25.8223-50.9209 25.8223-42.1611 25.8223-34.2393 24.2988-25.4795 21.252-15.8818 18.6621-7.5791 15.9199-1.33301 13.0254 2.85645 12.3398 3.69434 12.2637 4.79883 12.7969 6.16992 13.3301 7.46484 14.2441 8.53125 15.5391 9.36914 16.9102 10.2832 18.3193 10.6641 19.7666 10.5117 21.3662 10.2832 22.7754 9.33105 23.9941 7.65527 27.9551 1.6377 31.1162-6.32227 33.4775-16.2246 35.5342-25.0605 36.5625-33.7061 36.5625-42.1611 36.5625-51.5303 35.6484-60.2519 33.8203-68.3262 31.6113-78.2285 28.3359-85.998 23.9941-91.6348Z" fill="#FF0000" transform="translate(76.9393 162)"/></g></g><text fill="#FF0000" font-family="Gungsuh,Gungsuh_MSFontService,sans-serif" font-weight="400" font-size="117" transform="translate(586.667 283)">)</text><g clip-path="url(#clip11)" filter="url(#fx3)" transform="translate(562 124)"><g clip-path="url(#clip12)"><path d="M64.6699-97.2334C58.6523-97.2334 53.4346-95.0244 49.0166-90.6064 44.9033-86.417 42.8467-81.8086 42.8467-76.7812 42.8467-71.4492 45.1318-66.6123 49.7021-62.2705 54.5771-57.624 60.5186-55.3008 67.5264-55.3008 73.4678-55.3008 78.6094-57.1289 82.9512-60.7852 87.6738-64.7461 90.0352-69.8496 90.0352-76.0957 90.0352-81.5039 87.8262-86.2266 83.4082-90.2637 78.5332-94.7578 72.2871-97.081 64.6699-97.2334ZM66.1553-87.75C70.8779-87.75 74.6865-86.2266 77.5811-83.1797 79.8662-80.8184 81.0469-78.3809 81.123-75.8672 81.123-73.7344 79.752-71.4873 77.0098-69.126 74.0391-66.6885 70.8779-65.4697 67.5264-65.4697 63.3369-65.4697 59.7187-66.8408 56.6719-69.583 54.0059-72.0205 52.6728-74.3057 52.6729-76.4385 52.6728-78.876 53.6631-81.2373 55.6436-83.5225 58.2334-86.3408 61.7373-87.75 66.1553-87.75ZM71.0684-35.6484C61.5469-35.2676 53.4727-34.5059 46.8457-33.3633 43.1133-32.6777 39.1904-31.6875 35.0771-30.3926 31.7256-29.3262 29.2119-28.8691 27.5361-29.0215 25.3271-29.25 21.7471-30.5449 16.7959-32.9062 11.083-35.6484 8.34082-38.0098 8.56934-39.9902 8.72168-41.8945 11.1592-42.6562 15.8818-42.2754 23.042-41.8945 30.7353-41.7422 38.9619-41.8184 50.54-41.8945 62.6894-42.5039 75.4102-43.6465 78.8379-44.1797 81.8848-44.8271 84.5508-45.5889 86.0742-45.9697 87.8262-46.541 89.8066-47.3027 92.168-48.2168 94.0342-48.5977 95.4053-48.4453 97.2334-48.293 100.356-47.3408 104.774-45.5889 106.526-44.8271 107.783-43.7988 108.545-42.5039 109.154-41.2852 109.307-40.0283 109.002-38.7334 108.621-37.5146 107.897-36.5244 106.831-35.7627 105.688-35.001 104.432-34.6963 103.061-34.8486L102.489-34.9629C98.833-35.4961 95.8242-35.877 93.4629-36.1055 89.3496-36.4102 85.3506-36.4863 81.4658-36.334 84.665-34.4297 86.6074-32.7539 87.293-31.3066 87.6738-30.4687 87.6357-29.0977 87.1787-27.1934 86.9502-26.5078 86.7979-25.9746 86.7217-25.5938 86.5693-24.9844 86.4932-24.375 86.4932-23.7656 86.5693-13.5586 86.1123-6.24609 85.1221-1.82812 84.4365 0.990234 83.1797 3.58008 81.3516 5.94141 80.7422 6.7793 80.3232 7.38867 80.0947 7.76953 79.5615 8.45508 79.1045 9.2168 78.7236 10.0547 76.5146 13.3301 75.2197 14.8535 74.8389 14.625 74.5342 14.3965 74.7246 12.4922 75.4102 8.91211 75.7148 7.54102 75.8672 5.75098 75.8672 3.54199 75.791 2.09473 75.5625-0.495117 75.1816-4.22754 74.8008-8.26465 74.5342-11.54 74.3818-14.0537 74.0771-18.5479 73.9248-23.0039 73.9248-27.4219 74.001-28.8691 73.8486-30.2783 73.4678-31.6494 73.1631-33.0967 72.668-34.2773 71.9824-35.1914ZM178.804-83.1797 178.69-82.8369C179.375-82.4561 178.766-80.9707 176.862-78.3809 175.034-76.0195 172.52-73.3154 169.321-70.2686 165.969-67.0693 162.694-64.4033 159.494-62.2705 155.838-59.7568 152.906-58.3477 150.697-58.043 146.126-57.8906 143.118-57.3193 141.67-56.3291 140.223-55.3389 142.546-55.0723 148.64-55.5293 156.714-56.1387 163.341-57.5098 168.521-59.6426 172.71-61.3945 177.852-64.5557 183.946-69.126 186.916-68.0596 189.963-66.7646 193.086-65.2412 195.6-64.0225 198.951-62.2705 203.141-59.9854 205.35-58.7666 207.407-58.9189 209.311-60.4424 211.291-62.042 211.672-64.251 210.453-67.0693 208.321-70.1924 206.226-72.1348 204.169-72.8965 202.874-73.4297 200.818-73.582 197.999-73.3535 196.171-73.2012 194.724-73.125 193.658-73.125 191.829-73.125 190.039-73.3154 188.287-73.6963 190.268-75.2197 191.182-76.667 191.03-78.0381 190.877-79.9424 188.935-82.1133 185.202-84.5508 187.868-84.7031 190.801-84.7793 194-84.7793 195.981-84.7793 198.951-84.7793 202.912-84.7793 204.131-84.7031 205.35-84.8936 206.569-85.3506 207.787-85.8838 208.701-86.6455 209.311-87.6357 209.92-88.7021 209.996-89.8447 209.539-91.0635 209.006-92.4346 207.826-93.7676 205.997-95.0625 203.331-96.5098 201.351-97.2334 200.056-97.2334 199.142-97.2334 197.771-96.7764 195.943-95.8623 194.115-94.9482 192.477-94.2246 191.03-93.6914 188.516-92.7773 185.621-92.0156 182.346-91.4062 176.633-90.5684 171.949-90.0352 168.292-89.8066 164.408-89.5781 160.294-89.6543 155.952-90.0352 154.81-90.2637 153.705-90.1875 152.639-89.8066 151.573-89.4258 150.925-88.8926 150.697-88.207 150.468-87.293 150.849-86.3408 151.839-85.3506 153.058-84.1318 155.115-82.8369 158.009-81.4658 161.132-80.1709 163.227-79.4473 164.293-79.2949 165.207-79.2188 166.426-79.5234 167.95-80.209 169.321-80.8184 170.577-81.2754 171.72-81.5801 173.701-82.2656 176.062-82.7988 178.804-83.1797ZM186.002-37.3623 186.916-36.9053C187.526-35.9912 188.021-34.8105 188.402-33.3633 188.706-31.9922 188.859-30.5449 188.859-29.0215 188.859-23.8418 189.011-18.8145 189.316-13.9395 189.544-11.0449 189.887-7.42676 190.344-3.08496 190.649 0.342773 190.839 2.7041 190.915 3.99902 190.992 6.05566 190.877 7.73144 190.573 9.02637 189.659 12.7588 189.392 14.7393 189.773 14.9678 190.23 15.1963 191.525 13.6348 193.658 10.2832 194.038 9.52148 194.457 8.79785 194.914 8.1123 195.219 7.73144 195.638 7.16016 196.171 6.39844 198.076 3.88477 199.37 1.18066 200.056-1.71387 201.046-6.43652 201.503-14.3584 201.427-25.4795 201.427-26.0889 201.503-26.6982 201.656-27.3076 201.808-27.6885 201.96-28.2217 202.113-28.9072 202.646-30.7353 202.684-32.1064 202.227-33.0205 201.618-34.4678 199.675-36.1436 196.4-38.0479 201.579-38.2002 206.454-38.0859 211.025-37.7051 213.919-37.4766 217.08-37.0576 220.508-36.4482 221.879-36.2959 223.136-36.6006 224.279-37.3623 225.421-38.124 226.145-39.1143 226.45-40.333 226.83-41.7041 226.678-42.9609 225.993-44.1035 225.307-45.4746 224.05-46.541 222.222-47.3027 217.88-49.1309 214.757-50.1211 212.853-50.2734 211.482-50.3496 209.463-49.9307 206.797-49.0166 204.512-48.2549 202.493-47.6455 200.742-47.1885 197.695-46.4268 194.229-45.7793 190.344-45.2461 178.537-44.1035 166.921-43.4941 155.495-43.418 147.954-43.3418 140.299-43.4941 132.53-43.875 127.959-44.332 125.636-43.6465 125.56-41.8184 125.484-39.9141 128.15-37.4766 133.558-34.5059 138.433-32.2207 142.013-30.9639 144.298-30.7354 145.898-30.583 148.297-31.04 151.496-32.1064 155.534-33.4014 159.342-34.3916 162.922-35.0771 169.168-36.2197 176.862-36.9814 186.002-37.3623ZM320.474-46.1602 319.903-56.5576C314.876-56.1006 309.201-55.4912 302.879-54.7295 299.146-54.2725 293.7-53.5869 286.54-52.6729L265.745-50.0449C266.049-54.6152 266.164-57.8525 266.088-59.7568 265.935-62.5752 265.326-65.2031 264.259-67.6406 265.935-68.25 268.144-68.7451 270.886-69.126 272.562-69.3545 275.114-69.6211 278.542-69.9258 282.274-70.2305 284.902-70.4971 286.425-70.7256 289.015-71.1064 290.843-71.6016 291.91-72.2109 293.509-73.2773 294.385-74.5342 294.538-75.9814 294.69-77.2764 294.309-78.5713 293.395-79.8662 292.481-81.1611 291.3-82.2275 289.853-83.0654 288.406-83.9033 287.073-84.3223 285.854-84.3223 285.016-84.2461 284.064-84.0557 282.998-83.751 282.312-83.5986 281.246-83.2559 279.799-82.7227 275.99-81.3516 272.829-80.3994 270.315-79.8662 265.897-78.876 261.327-78.4189 256.604-78.4951 253.405-78.4951 251.158-78.3047 249.863-77.9238 247.806-77.4668 246.702-76.5146 246.549-75.0674 246.397-73.8486 246.778-72.8584 247.692-72.0967 248.225-71.5635 249.292-70.916 250.891-70.1543 252.186-69.5449 253.138-69.0879 253.748-68.7832 254.738-68.0977 255.614-67.374 256.376-66.6123 256.985-61.9658 257.061-58.1191 256.604-55.0723 256.299-53.3203 255.614-51.3779 254.548-49.2451 253.71-47.7217 253.253-46.4648 253.176-45.4746 252.948-43.875 253.215-41.8945 253.976-39.5332 255.5-36.0293 257.175-34.2393 259.004-34.1631 260.222-34.0869 262.05-34.8867 264.488-36.5625L266.659-37.9336C274.733-39.6855 284.483-41.3994 295.909-43.0752 306.04-44.5986 314.228-45.627 320.474-46.1602ZM313.276-81.0088 313.39-56.9004C313.39-54.8437 313.657-52.6728 314.19-50.3877 314.495-49.0166 314.99-47.1123 315.675-44.6748 316.437-42.3896 316.894-40.752 317.047-39.7617 317.351-38.0859 317.313-36.7148 316.932-35.6484 315.79-32.9824 315.561-31.5732 316.247-31.4209 316.932-31.2686 318.113-32.5635 319.789-35.3057 321.312-37.7432 322.645-40.1045 323.788-42.3896 325.083-44.751 325.883-46.4268 326.187-47.417 328.396-47.4932 330.643-47.417 332.928-47.1885 334.223-47.0361 335.937-46.8076 338.07-46.5029 341.193-46.0459 343.212-45.9316 344.126-46.1602 345.497-46.541 346.449-47.6836 346.982-49.5879 347.591-51.9492 347.211-53.8535 345.84-55.3008 344.545-56.6719 342.45-57.5859 339.555-58.043 337.575-58.2715 335.899-58.1572 334.528-57.7002 333.766-57.4717 332.776-57.0146 331.557-56.3291 330.643-55.7197 329.92-55.3389 329.386-55.1865 328.396-54.8818 327.33-54.7295 326.187-54.7295L326.187-82.1514 326.416-85.0078C326.644-86.4551 326.644-87.5215 326.416-88.207 326.035-89.2734 325.007-90.3398 323.331-91.4062 319.598-94.0723 316.209-96.0146 313.162-97.2334 310.496-98.2236 308.249-98.6426 306.421-98.4902 303.526-98.3379 302.041-97.7666 301.965-96.7764 301.888-95.9385 302.993-94.5674 305.278-92.6631 307.258-90.9111 308.896-89.1973 310.191-87.5215 312.095-85.1602 313.124-82.9893 313.276-81.0088ZM312.133-20.7949 313.39-21.0234C313.39-15.2344 313.619-10.0547 314.076-5.48438 314.381-2.9707 314.838 1.19209e-07 315.447 3.42773 315.752 5.25586 315.942 6.55078 316.018 7.3125 316.171 8.53125 316.209 9.67383 316.133 10.7402 315.675 13.7109 315.675 15.3486 316.133 15.6533 316.666 15.958 317.884 14.2061 319.789 10.3975L321.046 7.42676C322.493 4.76074 323.521 2.24707 324.131-0.114258 325.273-4.30371 325.844-9.59766 325.844-15.9961 325.921-16.6055 326.035-17.2148 326.187-17.8242 326.263-18.2051 326.416-18.7002 326.644-19.3096 327.101-20.833 327.216-22.0137 326.987-22.8516 326.53-24.0703 325.159-25.708 322.874-27.7646 320.512-29.8213 318.684-30.9639 317.389-31.1924 316.475-31.4209 315.104-31.1924 313.276-30.5068 312.362-30.126 311.6-29.8213 310.991-29.5928 310.077-29.2881 309.125-29.0215 308.134-28.793 304.25-27.8027 298.613-27.2314 291.224-27.0791 285.664-26.9268 280.179-27.041 274.771-27.4219 270.277-27.5742 268.487-26.3936 269.401-23.8799 270.315-21.3662 273.514-18.8525 278.999-16.3389 281.055-15.5771 282.541-15.1963 283.455-15.1963 284.14-15.1201 285.207-15.3486 286.654-15.8818 289.091-16.7959 291.605-17.5576 294.195-18.167 298.841-19.2334 304.821-20.1094 312.133-20.7949ZM431.066-81.6943 431.295-59.5283C428.629-58.3857 425.049-57.6621 420.555-57.3574 417.127-57.1289 413.433-57.1289 409.472-57.3574 406.12-57.6621 404.368-56.9766 404.216-55.3008 404.063-53.4727 406.006-51.1113 410.043-48.2168 412.48-46.6934 414.194-45.8555 415.185-45.7031 416.022-45.627 417.47-46.0459 419.526-46.96 421.278-47.7217 422.802-48.3311 424.097-48.7881 426.382-49.5498 428.896-50.2734 431.638-50.959 431.562-42.2754 431.79-33.7441 432.323-25.3652 432.628-20.6426 433.085-14.7012 433.694-7.54102 434.151-2.66602 434.418 0.647461 434.494 2.39941 434.646 5.21777 434.57 7.38867 434.266 8.91211 433.504 12.2637 433.313 14.2441 433.694 14.8535 434.151 15.5391 435.256 13.7871 437.008 9.59766L438.036 6.85547C439.788 2.58984 441.083-1.75195 441.921-6.16992 443.368-14.0156 444.092-24.6035 444.092-37.9336L444.092-81.6943 444.206-83.9795C444.282-85.8076 444.244-87.1406 444.092-87.9785 443.711-89.1973 442.797-90.416 441.35-91.6348 437.693-94.2246 434.266-96.0908 431.066-97.2334 428.4-98.1475 426.039-98.5664 423.982-98.4902 422.23-98.3379 420.974-97.8809 420.212-97.1191 419.526-96.3574 419.564-95.6338 420.326-94.9482L420.44-94.9482C423.792-91.9014 426.153-89.6162 427.524-88.0928 429.886-85.5029 431.066-83.3701 431.066-81.6943ZM386.277-69.0117 387.077-69.126 389.477-69.583C391.686-69.8877 393.323-70.0781 394.39-70.1543 396.294-70.3828 398.198-70.5732 400.103-70.7256 403.073-70.9541 405.13-71.7158 406.272-73.0107 407.567-74.6104 406.882-76.5527 404.216-78.8379 401.854-80.666 399.988-81.6562 398.617-81.8086 397.703-81.9609 396.408-81.6562 394.732-80.8945 393.818-80.4375 393.095-80.0947 392.562-79.8662 391.647-79.5615 390.695-79.2568 389.705-78.9521 385.059-78.0381 381.021-77.4668 377.594-77.2383 375.537-77.1621 373.062-77.2002 370.167-77.3525L366.968-77.3525C364.226-77.3525 362.702-76.6289 362.397-75.1816 362.093-73.4297 363.616-71.2969 366.968-68.7832 369.253-67.4121 370.891-66.6504 371.881-66.498 372.719-66.4219 374.242-66.6504 376.451-67.1836 377.975-67.4883 379.27-67.7549 380.336-67.9834 382.164-68.3643 384.145-68.707 386.277-69.0117ZM371.31-47.874 371.31-47.5312C371.538-44.7129 371.424-42.3516 370.967-40.4473 370.662-39.3047 370.167-38.0859 369.481-36.791 368.796-35.4961 368.453-34.3535 368.453-33.3633 368.529-31.8398 369.329-29.5547 370.853-26.5078 372.757-22.7754 374.204-20.6426 375.194-20.1094 376.108-19.6523 378.394-19.9189 382.05-20.9092L383.992-21.3662C386.811-21.8994 389.934-22.7373 393.361-23.8799 397.398-25.1748 401.093-26.584 404.444-28.1074 406.044-29.1738 407.072-30.3164 407.529-31.5352 407.91-32.6016 407.872-33.668 407.415-34.7344 406.958-35.6484 406.311-36.3721 405.473-36.9053 404.559-37.4385 403.721-37.6289 402.959-37.4766L401.474-37.1338C395.532-35.3057 391.19-34.125 388.448-33.5918 383.726-32.5254 380.298-32.2969 378.165-32.9062 378.698-35.0391 378.851-37.5527 378.622-40.4473 378.47-42.8086 378.051-45.3223 377.365-47.9883 379.574-48.4453 381.897-48.8643 384.335-49.2451 385.935-49.4736 388.258-49.8164 391.305-50.2734L401.017-51.6445C402.997-52.6348 404.025-53.8535 404.102-55.3008 404.178-56.5195 403.568-57.7764 402.273-59.0713 401.055-60.2139 399.531-61.0518 397.703-61.585 395.875-62.1943 394.275-62.2324 392.904-61.6992 387.877-60.1758 383.078-59.1475 378.508-58.6143 375.842-58.2334 372.719-58.043 369.139-58.043 366.549-57.9668 364.911-57.8144 364.226-57.5859 363.235-57.2051 362.778-56.3291 362.854-54.958 363.007-53.7393 363.54-52.7109 364.454-51.873 365.063-51.416 366.168-50.7686 367.768-49.9307Z" fill="#FF0000" transform="translate(76.9393 162)"/></g></g><text fill="#FF0000" font-family="Gungsuh,Gungsuh_MSFontService,sans-serif" font-weight="400" font-size="117" transform="translate(635.667 283)">우주닥터</text></g></svg>